<svg id="Art" xmlns="http://www.w3.org/2000/svg" viewBox="0 0 266.09 257.36"><circle cx="134.6" cy="66.19" r="60.49" fill="#532e1f"/><path d="M134.6,7.9a57.93,57.93,0,0,1,22.69,4.58A58.51,58.51,0,0,1,182.94,33.6a58.41,58.41,0,0,1,5.37,55.28,57.41,57.41,0,0,1-5.37,9.9,58.85,58.85,0,0,1-7.12,8.63,58.32,58.32,0,0,1-89.56-8.63A58.38,58.38,0,0,1,80.88,43.5,58.56,58.56,0,0,1,93.38,25a58.31,58.31,0,0,1,18.53-12.49A57.89,57.89,0,0,1,134.6,7.9m0-3.43a61.73,61.73,0,1,0,61.72,61.72A61.72,61.72,0,0,0,134.6,4.47Z" fill="#f1c500"/><polygon points="150.33 36.86 150.33 49.45 154.3 49.45 148.87 71.38 140.66 36.86 128.54 36.86 120.33 71.38 114.9 49.45 118.87 49.45 118.87 36.86 96.54 36.86 96.54 49.46 99.75 49.46 113.41 102.69 125.93 102.69 134.6 68.9 143.27 102.69 155.78 102.69 169.44 49.46 172.66 49.46 172.66 36.86 150.33 36.86" fill="#f1c500"/><polygon points="64.9 193.16 58.05 225.9 67.7 225.91 74.55 193.16 64.9 193.16" fill="#532e1f"/><path d="M85.26,205.87a11.06,11.06,0,0,1,2.32-2.81h0a9.89,9.89,0,0,1,3-1.76,10.26,10.26,0,0,1,3.57-.62h0a9.84,9.84,0,0,1,1.86.15,7.83,7.83,0,0,1,1.31.36,4.38,4.38,0,0,1,.87.45l.78.52a6.42,6.42,0,0,0,.76.46,2.52,2.52,0,0,0,1.16.28,2.88,2.88,0,0,0,1.56-.41,5.64,5.64,0,0,0,.91-.7l3.9-3.89-.53-.65a9.84,9.84,0,0,0-1.93-1.81,12,12,0,0,0-2.53-1.39,15.89,15.89,0,0,0-3-.9,18.6,18.6,0,0,0-3.6-.33h0A23.27,23.27,0,0,0,88.09,194a22.24,22.24,0,0,0-6.42,3.43,21.23,21.23,0,0,0-4.83,5.26,19.64,19.64,0,0,0-2.73,6.69,17.57,17.57,0,0,0-.22,6.62,12.06,12.06,0,0,0,2.29,5.37A11.84,11.84,0,0,0,80.85,225a16.85,16.85,0,0,0,6.83,1.27h0a21.46,21.46,0,0,0,7.69-1.3A17.81,17.81,0,0,0,101.5,221l.67-.65-2.93-3.65h0a2.07,2.07,0,0,0-.81-.57,2.66,2.66,0,0,0-1.92.06,4.42,4.42,0,0,0-.88.47,11.81,11.81,0,0,1-1.39.83,7.71,7.71,0,0,1-1.35.53,7.51,7.51,0,0,1-1.47.29,16.66,16.66,0,0,1-1.8.09h0a6.82,6.82,0,0,1-2.86-.57,5,5,0,0,1-2-1.64,6.29,6.29,0,0,1-1.07-2.72,10.72,10.72,0,0,1,.18-3.85A12.33,12.33,0,0,1,85.26,205.87Z" fill="#532e1f"/><polygon points="132.26 193.16 129.57 206.03 118.22 206.03 120.91 193.16 111.26 193.16 104.41 225.91 114.06 225.91 116.78 212.89 128.14 212.89 125.41 225.91 135.06 225.91 141.91 193.16 132.26 193.16" fill="#532e1f"/><polygon points="146.04 193.17 139.19 225.91 148.83 225.91 155.68 193.17 146.04 193.17" fill="#532e1f"/><path d="M180.67,224.36a23.44,23.44,0,0,0,3.08-1.56l.43-.26,3-14.54H173.56l-1,4.81a1.86,1.86,0,0,0,.42,1.7,2.22,2.22,0,0,0,1.72.65h2.14l-.62,3c-.55.17-1.12.32-1.69.44a14.14,14.14,0,0,1-2.65.23h0a8.5,8.5,0,0,1-3.31-.61,5.56,5.56,0,0,1-2.25-1.73,6.35,6.35,0,0,1-1.16-2.83,10.66,10.66,0,0,1,.18-4,12.79,12.79,0,0,1,1.38-3.72,10.77,10.77,0,0,1,2.26-2.8,9.8,9.8,0,0,1,3-1.79,10.22,10.22,0,0,1,3.63-.64h0a18.55,18.55,0,0,1,1.94.1,9.85,9.85,0,0,1,1.53.31,8.27,8.27,0,0,1,1.35.54c.45.23.94.51,1.43.82a3.16,3.16,0,0,0,3.31.2,4.2,4.2,0,0,0,1.23-.94l3.49-3.83-.57-.62a11.92,11.92,0,0,0-2-1.78,13.36,13.36,0,0,0-2.69-1.4,17.68,17.68,0,0,0-3.31-.92,22.25,22.25,0,0,0-4-.33h0a24.2,24.2,0,0,0-7.75,1.22,21.83,21.83,0,0,0-6.48,3.43,20.29,20.29,0,0,0-7.48,12,15.32,15.32,0,0,0,0,6.67,12.43,12.43,0,0,0,2.65,5.35,13.19,13.19,0,0,0,4.94,3.53,17.29,17.29,0,0,0,6.78,1.27h0a36.91,36.91,0,0,0,3.89-.2,26,26,0,0,0,3.55-.61A21.72,21.72,0,0,0,180.67,224.36Z" fill="#532e1f"/><path d="M213.42,193.17h-9.13l-20.36,32.74h7.56a4.14,4.14,0,0,0,2.27-.64,4.37,4.37,0,0,0,1.49-1.47L198,219h11.08l.7,4.63a2.56,2.56,0,0,0,1,1.66,3.32,3.32,0,0,0,2.1.62h7.24l-6.53-32Zm-11.55,19,4-7c.28-.45.59-1,.92-1.55.07.48.14.92.2,1.3l1.07,7.22Z" fill="#532e1f"/><path d="M250.76,193.17l-3.59,17.17c0,.18-.08.37-.11.57l-10.3-16.24h0a4.14,4.14,0,0,0-.54-.69,2.29,2.29,0,0,0-.7-.51,2.72,2.72,0,0,0-.85-.24h0a7.82,7.82,0,0,0-.92-.05h-4.89L222,225.91h8.7l3.63-17.38c0-.11,0-.21.07-.32l10.22,16.1a3.11,3.11,0,0,0,1.35,1.26,4.44,4.44,0,0,0,1.82.34h4.85l6.85-32.75Z" fill="#532e1f"/><path d="M51.52,193.16h0a3.52,3.52,0,0,0-1.22.22,3.45,3.45,0,0,0-1.09.69,6.11,6.11,0,0,0-.94,1.11l-15,22.42c-.54.8-1.08,1.63-1.61,2.48l-.16.27v0c-.17-.85-.36-1.68-.57-2.45l-5.63-22.52a3.55,3.55,0,0,0-.5-1.17,2.2,2.2,0,0,0-.89-.77,2.92,2.92,0,0,0-1.18-.23h-9L4,239.42H14.18l5.38-25.7L24.31,232a1.83,1.83,0,0,0,.08.25l.87,3.36h6.11l1.92-2.72a8.36,8.36,0,0,0,.57-.73l1.24-1.85.39-.54h0l10.8-16-5.36,25.58h10.2l9.68-46.26Z" fill="#532e1f"/><path d="M28,159.47l1.23,26.94h9.38l21.88-45.49H52.21a4.78,4.78,0,0,0-2.7,1,5,5,0,0,0-1.68,2l-10,22.63-.09.22v-.07l-1-20.66h0l-.26-5.09H27.69l-1.89,4.23L15.58,166.31l-.16.34v-.13l-.26-22.7a3,3,0,0,0-3.29-3H3.92L5.75,186.4H15Z" fill="#532e1f"/><polygon points="50.36 186.38 73.48 186.38 75.04 178.93 61.57 178.93 62.69 173.55 73.01 173.55 74.53 166.31 64.2 166.31 65.3 161.08 78.77 161.09 80.33 153.63 57.21 153.63 50.36 186.38" fill="#532e1f"/><path d="M92.82,178.62a5.18,5.18,0,0,1-2.82.68h0a6.48,6.48,0,0,1-2.24-.34,10.15,10.15,0,0,1-1.65-.81l-1.35-.88a3.25,3.25,0,0,0-3.25-.22,3.52,3.52,0,0,0-1.2.89l-3.54,4,.52.61a9.52,9.52,0,0,0,2.12,1.82,15.27,15.27,0,0,0,2.68,1.35,16.65,16.65,0,0,0,3.06.88,16.87,16.87,0,0,0,3.24.32h0a17.31,17.31,0,0,0,5.49-.85,15.28,15.28,0,0,0,4.48-2.35,13.75,13.75,0,0,0,3.23-3.54,13,13,0,0,0,1.77-4.34,8.37,8.37,0,0,0,0-3.72,6.35,6.35,0,0,0-1.36-2.66,7.51,7.51,0,0,0-2.27-1.77,20.45,20.45,0,0,0-2.58-1.11c-.86-.31-1.72-.59-2.56-.84a13.62,13.62,0,0,1-2-.77,3.22,3.22,0,0,1-1.14-.82.84.84,0,0,1-.13-.78,2.51,2.51,0,0,1,1.08-1.64,4.85,4.85,0,0,1,2.75-.66h0a6.08,6.08,0,0,1,1.84.26,9.27,9.27,0,0,1,1.43.62l1.2.68a3,3,0,0,0,3.07,0,4.87,4.87,0,0,0,1.15-1l3.15-4-.53-.57a9.5,9.5,0,0,0-1.89-1.51,13.3,13.3,0,0,0-2.34-1.11,15.15,15.15,0,0,0-2.75-.7,19.93,19.93,0,0,0-3-.23h0a16.34,16.34,0,0,0-5.29.83,15.21,15.21,0,0,0-4.28,2.22,13.15,13.15,0,0,0-3.07,3.22,10.88,10.88,0,0,0-1.61,3.75,9.73,9.73,0,0,0-.12,4,6.47,6.47,0,0,0,1.32,2.82,7.16,7.16,0,0,0,2.27,1.8,16,16,0,0,0,2.6,1.07c.87.28,1.73.54,2.57.76a13.76,13.76,0,0,1,2,.73,2.84,2.84,0,0,1,1.09.85,1.3,1.3,0,0,1,.12,1A3,3,0,0,1,92.82,178.62Z" fill="#532e1f"/><polygon points="112.43 186.42 122.03 186.42 127.29 161.3 136.53 161.3 138.12 153.68 110.05 153.68 108.45 161.3 117.69 161.3 112.43 186.42" fill="#532e1f"/><polygon points="157.26 186.42 158.82 178.97 145.35 178.97 146.47 173.6 156.79 173.6 158.31 166.36 147.99 166.36 149.08 161.13 162.55 161.13 164.11 153.68 140.99 153.68 134.14 186.42 157.26 186.42" fill="#532e1f"/><path d="M170,186.42,172.35,175h1.05a1.92,1.92,0,0,1,.84.13.89.89,0,0,1,.31.43l3.58,8.94c.35.87,1.21,1.89,3.29,1.89H190l-5.38-12.16a4.85,4.85,0,0,0-1-1.5,15.75,15.75,0,0,0,1.57-.86,14,14,0,0,0,2.71-2.2,11.93,11.93,0,0,0,3.1-5.82,9.45,9.45,0,0,0,0-4,6.31,6.31,0,0,0-2-3.35A10.12,10.12,0,0,0,185,154.4a22.67,22.67,0,0,0-6.19-.72H167.21l-6.85,32.74ZM175.29,161h2.17c1.69,0,2.89.31,3.49.9a2.3,2.3,0,0,1,.51,2.33,5.44,5.44,0,0,1-.6,1.59,4.23,4.23,0,0,1-1,1.2,5.22,5.22,0,0,1-1.65.83h0a7.93,7.93,0,0,1-2.42.32h-2Z" fill="#532e1f"/><path d="M200.84,186.43l3.63-17.38c0-.11.05-.21.07-.32l10.22,16.1a3.11,3.11,0,0,0,1.35,1.26,4.44,4.44,0,0,0,1.82.34h4.85l6.85-32.75h-8.69l-3.6,17.17c0,.18-.07.37-.11.57l-10.3-16.24h0a4.89,4.89,0,0,0-.54-.69,2.33,2.33,0,0,0-.71-.51,2.84,2.84,0,0,0-.81-.23h0a8.39,8.39,0,0,0-1,0H199l-6.85,32.75Z" fill="#532e1f"/><path d="M77.87,244.52a6.35,6.35,0,0,1-.68,1.88,5.21,5.21,0,0,1-1.11,1.41A4.82,4.82,0,0,1,72.77,249a3.94,3.94,0,0,1-1.66-.31,2.44,2.44,0,0,1-1-.83,3.11,3.11,0,0,1-.49-1.34,5.76,5.76,0,0,1,.11-1.86l2.53-12H67.71l-2.48,11.86a8.65,8.65,0,0,0-.11,3.34,5.72,5.72,0,0,0,3.55,4.47,8.69,8.69,0,0,0,3.44.63,10.71,10.71,0,0,0,3.67-.62,10.32,10.32,0,0,0,3-1.72A10,10,0,0,0,81.07,248a10.8,10.8,0,0,0,1.28-3.31l2.52-12H80.36Z" fill="#532e1f"/><path d="M100.77,244.7c0,.18-.08.38-.11.58l-7-11.84a2.45,2.45,0,0,0-.25-.36,1.1,1.1,0,0,0-.34-.27,1.31,1.31,0,0,0-.41-.12,3,3,0,0,0-.46,0H89.93l-4.22,20.09h4.07l2.56-12.16c0-.14.06-.3.09-.46l7,11.79a1.65,1.65,0,0,0,.63.65,1.9,1.9,0,0,0,.89.18h2.22l4.22-20.09h-4.08Z" fill="#532e1f"/><polygon points="108.9 252.75 113.42 252.75 117.64 232.66 113.11 232.66 108.9 252.75" fill="#532e1f"/><path d="M138,232.66A1.85,1.85,0,0,0,137,233a2.31,2.31,0,0,0-.67.69l-7.07,11.74c-.24.39-.47.8-.69,1.25,0-.4-.1-.77-.16-1.11l-2.17-11.75a1.42,1.42,0,0,0-.45-.81,1.48,1.48,0,0,0-1-.34h-3.46l4.07,20.09h3.88l12.5-20.09Z" fill="#532e1f"/><polygon points="140.66 252.75 153.91 252.75 154.69 249.05 145.97 249.05 146.94 244.44 153.81 244.44 154.56 240.85 147.69 240.85 148.64 236.35 157.35 236.35 158.13 232.66 144.87 232.66 140.66 252.75" fill="#532e1f"/><path d="M174.85,234.32a5.67,5.67,0,0,0-2.29-1.23,12.27,12.27,0,0,0-3.48-.43h-6.34l-4.21,20.09H163l1.58-7.52h1.22a1.38,1.38,0,0,1,.58.08.73.73,0,0,1,.24.31l2.84,6.16a1.58,1.58,0,0,0,.61.71,1.81,1.81,0,0,0,1,.26h3.95L171.34,245a3.16,3.16,0,0,0-.51-.76,8.56,8.56,0,0,0,1.4-.65,8.41,8.41,0,0,0,1.71-1.31,7.19,7.19,0,0,0,1.24-1.66,6.79,6.79,0,0,0,.72-2,5.79,5.79,0,0,0,0-2.41A3.83,3.83,0,0,0,174.85,234.32ZM170.12,241a4.5,4.5,0,0,1-1.28.63,6.16,6.16,0,0,1-1.74.23h-1.77l1.17-5.55h2a3.73,3.73,0,0,1,2.56.67,1.85,1.85,0,0,1,.39,1.86A3.77,3.77,0,0,1,171,240,3.52,3.52,0,0,1,170.12,241Z" fill="#532e1f"/><path d="M192,233a9.48,9.48,0,0,0-6.22-.07,8.83,8.83,0,0,0-2.39,1.3,7.63,7.63,0,0,0-1.72,1.88,6.61,6.61,0,0,0-.92,2.19,5.76,5.76,0,0,0-.07,2.39,3.71,3.71,0,0,0,.8,1.68,4.42,4.42,0,0,0,1.38,1.07,11.46,11.46,0,0,0,1.58.66c.52.18,1.05.35,1.57.5a5.81,5.81,0,0,1,1.25.51,2,2,0,0,1,.71.66,1.35,1.35,0,0,1,.08.94,2.84,2.84,0,0,1-1.13,1.83,4.64,4.64,0,0,1-3.87.4,4.89,4.89,0,0,1-1.05-.55c-.3-.22-.57-.42-.78-.59a1.42,1.42,0,0,0-1.64-.19,2.17,2.17,0,0,0-.52.38l-1.66,2,.21.26a5.89,5.89,0,0,0,1.16,1.12,7.8,7.8,0,0,0,1.47.84,8.72,8.72,0,0,0,1.73.54,9,9,0,0,0,1.89.19,9.32,9.32,0,0,0,3.14-.51,8.68,8.68,0,0,0,2.54-1.4,8,8,0,0,0,1.85-2.09,8.28,8.28,0,0,0,1-2.57,5,5,0,0,0,0-2.23,3.61,3.61,0,0,0-.82-1.59,4.59,4.59,0,0,0-1.37-1,13.22,13.22,0,0,0-1.58-.69l-1.56-.54a7.11,7.11,0,0,1-1.26-.54,2,2,0,0,1-.72-.64,1,1,0,0,1-.09-.82,2.36,2.36,0,0,1,.34-.84,2.25,2.25,0,0,1,.62-.65,3.55,3.55,0,0,1,.94-.44,4.66,4.66,0,0,1,1.24-.16,3.91,3.91,0,0,1,1.28.18,5.2,5.2,0,0,1,.91.42l.68.45a1.38,1.38,0,0,0,1.5.11,1.68,1.68,0,0,0,.58-.53l1.45-2-.22-.25A5.94,5.94,0,0,0,192,233Z" fill="#532e1f"/><polygon points="195.62 252.75 200.14 252.75 204.36 232.66 199.83 232.66 195.62 252.75" fill="#532e1f"/><polygon points="207.65 236.44 213.59 236.44 210.17 252.75 214.68 252.75 218.1 236.44 224.02 236.44 224.81 232.66 208.44 232.66 207.65 236.44" fill="#532e1f"/><path d="M241.46,232.66a1.76,1.76,0,0,0-1.05.34,2.61,2.61,0,0,0-.65.63l-4.93,6.43a13.22,13.22,0,0,0-.78,1.09l-.08.12c-.08-.34-.19-.71-.32-1.1l-2.25-6.42a1.86,1.86,0,0,0-.46-.74,1.37,1.37,0,0,0-1-.35h-3.83L231,244.89l-1.65,7.86h4.52l1.61-7.72,10.12-12.37Z" fill="#532e1f"/></svg>